<?xml version="1.0" encoding="UTF-8"?>
<!DOCTYPE svg PUBLIC "-//W3C//DTD SVG 1.1//EN" "http://www.w3.org/Graphics/SVG/1.1/DTD/svg11.dtd">
<!-- Creator: CorelDRAW -->
<svg xmlns="http://www.w3.org/2000/svg" xml:space="preserve" width="6.82666in" height="6.82666in" style="shape-rendering:geometricPrecision; text-rendering:geometricPrecision; image-rendering:optimizeQuality; fill-rule:evenodd; clip-rule:evenodd"
viewBox="0 0 6.82666 6.82666"
 xmlns:xlink="http://www.w3.org/1999/xlink"
 version="1.1">
 <defs>
  <style type="text/css">
   <![CDATA[
    .fil9 {fill:none}
    .fil4 {fill:#1E1A21}
    .fil1 {fill:#24252B}
    .fil3 {fill:#384850}
    .fil0 {fill:#465B65}
    .fil2 {fill:#556F7A}
    .fil6 {fill:#DDE3E7}
    .fil5 {fill:#EDEFF0}
    .fil8 {fill:#F8B53C}
    .fil7 {fill:#FEC245}
   ]]>
  </style>
 </defs>
 <g id="Layer_x0020_1">
  <metadata id="CorelCorpID_0Corel-Layer"/>
  <g id="_552561528">
   <g id="Guides">
   </g>
   <g id="Layer_2">
   </g>
   <g id="Layer_3">
   </g>
   <g id="Layer_4">
   </g>
   <g id="Layer_5">
   </g>
   <g id="Layer_6">
    <g>
     <path id="_599856824" class="fil0" d="M0.990701 1.39855l0.691035 1.50246 0.863429 0 0 -0.000133858 0.0308701 0 0.647799 0 0.0308661 0 0 9.84252e-005 0.854594 0 0.700531 -1.50246 -0.919063 0 0 -0.330465 0 -0.123433 -0.123433 0 -1.73413 0 -0.123433 0 0 0.123433 0 0.330465 -0.919067 0 0 3.54331e-005zm2.65313 -0.207035l0 0.206567 -1.48716 0 0 -0.206567 1.48716 0z"/>
     <polygon id="_599855624" class="fil1" points="2.54513,2.96248 1.662,2.96248 1.6423,2.96248 1.63404,2.94452 0.955602,1.46945 0.955602,3.94078 0.955602,3.97164 0.986469,3.97164 4.81333,3.97164 4.8442,3.97164 4.8442,3.94078 4.8442,1.47078 4.15696,2.94478 4.1487,2.96248 4.129,2.96248 3.25467,2.96248 3.25467,3.14602 3.25467,3.17688 3.2238,3.17688 2.576,3.17688 2.54513,3.17688 2.54513,3.14602 "/>
     <rect id="_599856176" class="fil0" x="2.60687" y="2.96262" width="0.586066" height="0.152531"/>
     <path id="_599855936" class="fil2" d="M1.68174 2.90102l-0.691035 -1.50246 -0.0350315 0 -3.14961e-005 0.0709016 0.678433 1.4751 0.00826772 0.0179685 0.0196969 -3.93701e-006 0.88313 0 0 0.183531 0 0.0308661 0.0308701 0 0.647799 0 0.0308661 0 0 -0.0308661 0 -0.183531 0.874327 0 0.0197008 0 0.00826772 -0.0177323 0.687232 -1.47396 3.14961e-005 -0.0722008 -0.0344016 -6.69291e-005 -0.700594 1.50246 -0.854598 0 0 -9.84252e-005 -0.0308661 -3.93701e-006 -0.647799 0 -0.0308661 0 0 0.000133858 -0.863398 0 0 -3.14961e-005zm0.92513 0.214134l0 -0.152531 0.586067 -3.93701e-006 0 0.152531 -0.586067 3.93701e-006z"/>
     <polygon id="_599855552" class="fil1" points="1.90977,1.06805 1.90977,1.39855 2.15667,1.39808 2.15667,1.19152 3.64383,1.19152 3.64383,1.39808 3.89073,1.39855 3.89073,1.06805 3.89073,0.944618 3.7673,0.944618 2.0332,0.944618 1.90977,0.944618 "/>
     <polygon id="_599855384" class="fil3" points="2.8999,1.39808 2.8999,2.90088 3.2238,2.90088 3.25467,2.90088 3.25467,2.90102 4.10926,2.90102 4.8098,1.39855 3.89073,1.39855 3.64383,1.39808 "/>
     <polygon id="_599855192" class="fil4" points="3.64383,1.19152 3.64383,1.39808 3.89073,1.39855 3.89073,1.06805 3.89073,0.944618 3.7673,0.944618 2.8999,0.944618 2.8999,1.19152 "/>
     <polygon id="_599844488" class="fil0" points="4.8098,1.39855 4.10926,2.90102 3.25467,2.90102 3.25467,2.90088 3.2238,2.90088 2.8999,2.90088 2.8999,2.96261 3.19293,2.96261 3.19293,3.11515 2.8999,3.11515 2.8999,3.17688 3.2238,3.17688 3.25467,3.17688 3.25467,3.14602 3.25467,2.96248 4.129,2.96248 4.1487,2.96248 4.15696,2.94478 4.8442,1.47078 4.84423,1.39861 "/>
     <polygon id="_599844368" class="fil4" points="4.8442,1.47078 4.15696,2.94478 4.1487,2.96248 4.129,2.96248 3.25467,2.96248 3.25467,3.14602 3.25467,3.17688 3.2238,3.17688 2.8999,3.17688 2.8999,3.97164 4.81333,3.97164 4.8442,3.97164 4.8442,3.94078 "/>
     <rect id="_599843576" class="fil3" x="2.8999" y="2.96262" width="0.293031" height="0.152531"/>
    </g>
    <g>
     <path id="_599842544" class="fil2" d="M5.55863 4.33188c-0.0247008,-0.129 -0.0733346,-0.2495 -0.141031,-0.356732l0.2005 -0.250866 -0.260634 -0.26063 -0.2475 0.197795c-0.104701,-0.069 -0.222665,-0.119531 -0.349232,-0.146969l-0.0364016 -0.326295 -0.368598 0 -0.0364016 0.326295c-0.122402,0.0265315 -0.236732,0.0746654 -0.338835,0.140201l-0.267201 -0.213563 -0.26063 0.26063 0.21363 0.267299c-0.0632677,0.0987008 -0.110268,0.208835 -0.137232,0.326598l-0.351795 0.0392677 0 0.368598 0.347831 0.0387992c0.0244685,0.116469 0.0684331,0.225768 0.128402,0.324268l-0.223295 0.279366 0.26063 0.260634 0.271531 -0.217c0.0971654,0.0652992 0.206031,0.114567 0.322732,0.144098l0.0388661 0.348366 0.368602 3.93701e-006 0.0372677 -0.334098c0.122969,-0.0227323 0.238335,-0.0671654 0.341965,-0.129201l0.00193307 -0.00179921c0.126201,-0.0759331 0.234902,-0.177965 0.318634,-0.298665l0.00190157 -0.00176772c0.0711339,-0.103098 0.124098,-0.219701 0.154268,-0.345201l0.322531 -0.036 0 -0.368598 -0.312437 -0.0348346z"/>
     <path id="_599843168" class="fil0" d="M5.55863 4.33188c-0.0247008,-0.129 -0.0733346,-0.2495 -0.141031,-0.356732l0.2005 -0.250866 -0.260634 -0.26063 -0.2475 0.197795c-0.104701,-0.069 -0.222665,-0.119531 -0.349232,-0.146969l-0.0364016 -0.326295 -0.204063 0 0 2.69383 0.172264 0 0.0372677 -0.334098c0.122969,-0.0227323 0.238335,-0.0671654 0.341965,-0.129201l0.00193307 -0.00179921c0.126201,-0.0759331 0.234902,-0.177965 0.318634,-0.298665l0.00190157 -0.00176772c0.0711339,-0.103098 0.124098,-0.219701 0.154268,-0.345201l0.322531 -0.036 0 -0.368598 -0.312402 -0.0347992z"/>
     <circle id="_599840984" class="fil5" cx="4.54003" cy="4.52811" r="0.544067"/>
     <path id="_599839400" class="fil6" d="M4.54003 3.98407c-0.00663386,0 -0.0132008,0.000165354 -0.0197992,0.000401575l0 1.0873c0.00656693,0.000232283 0.0131654,0.000401575 0.0197992,0.000401575 0.300465,0 0.544067,-0.243567 0.544067,-0.544067 0,-0.300469 -0.243598,-0.544035 -0.544067,-0.544035z"/>
     <g>
      <path id="_599839328" class="fil7" d="M4.85013 4.23401c-0.137567,-0.137402 -0.344402,-0.163366 -0.508201,-0.078l0.293134 0.292768 -0.184335 0.184098 -0.293134 -0.292768c-0.0855,0.163567 -0.0594685,0.370165 0.0780984,0.507531 0.132366,0.132201 0.328902,0.161268 0.489465,0.0872008l0.789665 0.788665c0.0585984,0.0585315 0.153634,0.0585315 0.212268,0l0 0c0.0585984,-0.0585315 0.0585984,-0.153433 0,-0.212l-0.789665 -0.788665c0.0741693,-0.160366 0.0451024,-0.356634 -0.0872953,-0.488831z"/>
     </g>
     <path id="_552563064" class="fil8" d="M5.72713 5.51151l-0.789665 -0.788665c0.0741654,-0.160366 0.0450669,-0.356665 -0.0872992,-0.488866 -0.0905984,-0.0905 -0.211268,-0.132634 -0.329866,-0.1265l0 0.226567 0.114835 0.114665 -0.114835 0.114665 0 0.410665c0.0697677,0.00359843 0.140268,-0.0094685 0.204933,-0.0392992l0.789665 0.788665c0.0585984,0.0585315 0.153634,0.0585315 0.212268,0l0 3.93701e-006c0.0585669,-0.0584331 0.0585669,-0.153366 -3.54331e-005,-0.211902z"/>
    </g>
   </g>
   <g id="Layer_7">
   </g>
   <g id="Layer_8">
   </g>
   <g id="Layer_9">
   </g>
   <g id="Layer_10">
   </g>
   <g id="Layer_11">
   </g>
   <g id="Layer_12">
   </g>
   <g id="Layer_13">
   </g>
   <g id="Layer_14">
   </g>
   <g id="Layer_15">
   </g>
   <g id="Layer_16">
   </g>
   <g id="Layer_17">
   </g>
   <g id="Layer_18">
   </g>
   <g id="Layer_19">
   </g>
   <g id="Layer_20">
   </g>
   <g id="Layer_21">
   </g>
   <g id="Layer_22">
   </g>
   <g id="Layer_23">
   </g>
   <g id="Layer_24">
   </g>
   <g id="Layer_25">
   </g>
   <g id="Layer_26">
   </g>
  </g>
 </g>
 <rect class="fil9" width="6.82666" height="6.82666"/>
</svg>
